solid OpenSCAD_Model
  facet normal 0 0 -1
    outer loop
      vertex 1.75 3.0141 0
      vertex 2.91014 -1.94449 0
      vertex 2.47487 -2.47487 0
    endloop
  endfacet
  facet normal -0 0 -1
    outer loop
      vertex 3.23357 -1.33939 0
      vertex 2.91014 -1.94449 0
      vertex 1.75 3.0141 0
    endloop
  endfacet
  facet normal 0 0 -1
    outer loop
      vertex 1.75 3.0141 0
      vertex 2.47487 -2.47487 0
      vertex 1.94449 -2.91014 0
    endloop
  endfacet
  facet normal 0 0 -1
    outer loop
      vertex 3.43274 -0.682816 0
      vertex 1.75 3.0141 0
      vertex 3.5 0 0
    endloop
  endfacet
  facet normal 0 0 -1
    outer loop
      vertex 3.43274 0.682816 0
      vertex 1.75 3.0141 0
      vertex 3.23357 1.33939 0
    endloop
  endfacet
  facet normal -0 0 -1
    outer loop
      vertex 3.43274 -0.682816 0
      vertex 3.23357 -1.33939 0
      vertex 1.75 3.0141 0
    endloop
  endfacet
  facet normal 0 0 -1
    outer loop
      vertex 1.75 3.0141 0
      vertex 3.43274 0.682816 0
      vertex 3.5 0 0
    endloop
  endfacet
  facet normal 0 0 -1
    outer loop
      vertex 2.47487 2.47487 0
      vertex 1.75 3.0141 0
      vertex 1.94449 2.91014 0
    endloop
  endfacet
  facet normal -0 -0 -1
    outer loop
      vertex 2.47487 2.47487 0
      vertex 2.91014 1.94449 0
      vertex 1.75 3.0141 0
    endloop
  endfacet
  facet normal -0 -0 -1
    outer loop
      vertex 2.91014 1.94449 0
      vertex 3.23357 1.33939 0
      vertex 1.75 3.0141 0
    endloop
  endfacet
  facet normal 0 -0 -1
    outer loop
      vertex 1.75 3.0141 0
      vertex 1.94449 -2.91014 0
      vertex 1.33939 -3.23357 0
    endloop
  endfacet
  facet normal 0 0 -1
    outer loop
      vertex 0.682816 -3.43274 0
      vertex 1.75 3.0141 0
      vertex 1.33939 -3.23357 0
    endloop
  endfacet
  facet normal -0 0 -1
    outer loop
      vertex 0.682816 -3.43274 0
      vertex 0 -3.5 0
      vertex 1.75 3.0141 0
    endloop
  endfacet
  facet normal 0 0 -1
    outer loop
      vertex 1.51553 5.875 0
      vertex 1.69037 5.45293 0
      vertex 1.75 5 0
    endloop
  endfacet
  facet normal 0 0 -1
    outer loop
      vertex 1.23743 6.23743 0
      vertex 1.51553 5.875 0
      vertex 1.75 5 0
    endloop
  endfacet
  facet normal 0 0 -1
    outer loop
      vertex -0.452927 6.69037 0
      vertex 0 6.75 0
      vertex 0.452927 6.69037 0
    endloop
  endfacet
  facet normal 0 0 -1
    outer loop
      vertex -0.875 6.51553 0
      vertex -0.452927 6.69037 0
      vertex 0.452927 6.69037 0
    endloop
  endfacet
  facet normal 0 0 -1
    outer loop
      vertex 0.875 6.51553 0
      vertex -0.875 6.51553 0
      vertex 0.452927 6.69037 0
    endloop
  endfacet
  facet normal -0 0 -1
    outer loop
      vertex 0.875 6.51553 0
      vertex -1.23743 6.23743 0
      vertex -0.875 6.51553 0
    endloop
  endfacet
  facet normal 0 -0 -1
    outer loop
      vertex 0.875 6.51553 0
      vertex 1.23743 6.23743 0
      vertex -1.23743 6.23743 0
    endloop
  endfacet
  facet normal 0 -0 -1
    outer loop
      vertex -1.23743 6.23743 0
      vertex 1.23743 6.23743 0
      vertex -1.75 5 0
    endloop
  endfacet
  facet normal 0 -0 -1
    outer loop
      vertex -1.51553 5.875 0
      vertex -1.23743 6.23743 0
      vertex -1.75 5 0
    endloop
  endfacet
  facet normal 0 -0 -1
    outer loop
      vertex -1.69037 5.45293 0
      vertex -1.51553 5.875 0
      vertex -1.75 5 0
    endloop
  endfacet
  facet normal 0 0 -1
    outer loop
      vertex -1.75 5 0
      vertex 1.23743 6.23743 0
      vertex 1.75 5 0
    endloop
  endfacet
  facet normal 0 0 -1
    outer loop
      vertex 1.75 3.0141 0
      vertex -1.75 5 0
      vertex 1.75 5 0
    endloop
  endfacet
  facet normal 0 0 -1
    outer loop
      vertex 1.75 3.0141 0
      vertex -1.75 3.0141 0
      vertex -1.75 5 0
    endloop
  endfacet
  facet normal -0 0 -1
    outer loop
      vertex 1.75 3.0141 0
      vertex 0 -3.5 0
      vertex -1.75 3.0141 0
    endloop
  endfacet
  facet normal 0 0 -1
    outer loop
      vertex -1.75 3.0141 0
      vertex -2.47487 2.47487 0
      vertex -1.94449 2.91014 0
    endloop
  endfacet
  facet normal 0 0 -1
    outer loop
      vertex -1.75 3.0141 0
      vertex -2.91014 1.94449 0
      vertex -2.47487 2.47487 0
    endloop
  endfacet
  facet normal 0 0 -1
    outer loop
      vertex -1.75 3.0141 0
      vertex -3.23357 1.33939 0
      vertex -2.91014 1.94449 0
    endloop
  endfacet
  facet normal 0 0 -1
    outer loop
      vertex -1.75 3.0141 0
      vertex -3.43274 0.682816 0
      vertex -3.23357 1.33939 0
    endloop
  endfacet
  facet normal 0 0 -1
    outer loop
      vertex -1.75 3.0141 0
      vertex -3.5 0 0
      vertex -3.43274 0.682816 0
    endloop
  endfacet
  facet normal 0 0 -1
    outer loop
      vertex -1.75 3.0141 0
      vertex -3.43274 -0.682816 0
      vertex -3.5 0 0
    endloop
  endfacet
  facet normal 0 0 -1
    outer loop
      vertex -1.75 3.0141 0
      vertex -3.23357 -1.33939 0
      vertex -3.43274 -0.682816 0
    endloop
  endfacet
  facet normal 0 0 -1
    outer loop
      vertex -1.75 3.0141 0
      vertex -2.91014 -1.94449 0
      vertex -3.23357 -1.33939 0
    endloop
  endfacet
  facet normal 0 0 -1
    outer loop
      vertex -1.75 3.0141 0
      vertex -2.47487 -2.47487 0
      vertex -2.91014 -1.94449 0
    endloop
  endfacet
  facet normal 0 0 -1
    outer loop
      vertex -1.75 3.0141 0
      vertex -1.94449 -2.91014 0
      vertex -2.47487 -2.47487 0
    endloop
  endfacet
  facet normal 0 -0 -1
    outer loop
      vertex -1.75 3.0141 0
      vertex -1.33939 -3.23357 0
      vertex -1.94449 -2.91014 0
    endloop
  endfacet
  facet normal 0 0 -1
    outer loop
      vertex -1.75 3.0141 0
      vertex -0.682816 -3.43274 0
      vertex -1.33939 -3.23357 0
    endloop
  endfacet
  facet normal 0 0 -1
    outer loop
      vertex -1.75 3.0141 0
      vertex 0 -3.5 0
      vertex -0.682816 -3.43274 0
    endloop
  endfacet
  facet normal 0 -0 1
    outer loop
      vertex 2.47487 -2.47487 4.54
      vertex 2.91014 -1.94449 4.54
      vertex 1.75 3.0141 4.54
    endloop
  endfacet
  facet normal 0 0 1
    outer loop
      vertex 1.75 3.0141 4.54
      vertex 2.91014 -1.94449 4.54
      vertex 3.23357 -1.33939 4.54
    endloop
  endfacet
  facet normal 0 -0 1
    outer loop
      vertex 1.94449 -2.91014 4.54
      vertex 2.47487 -2.47487 4.54
      vertex 1.75 3.0141 4.54
    endloop
  endfacet
  facet normal 0 0 1
    outer loop
      vertex 3.5 0 4.54
      vertex 1.75 3.0141 4.54
      vertex 3.43274 -0.682816 4.54
    endloop
  endfacet
  facet normal 0 0 1
    outer loop
      vertex 3.23357 1.33939 4.54
      vertex 1.75 3.0141 4.54
      vertex 3.43274 0.682816 4.54
    endloop
  endfacet
  facet normal 0 0 1
    outer loop
      vertex 1.75 3.0141 4.54
      vertex 3.23357 -1.33939 4.54
      vertex 3.43274 -0.682816 4.54
    endloop
  endfacet
  facet normal 0 0 1
    outer loop
      vertex 3.5 0 4.54
      vertex 3.43274 0.682816 4.54
      vertex 1.75 3.0141 4.54
    endloop
  endfacet
  facet normal 0 0 1
    outer loop
      vertex 1.94449 2.91014 4.54
      vertex 1.75 3.0141 4.54
      vertex 2.47487 2.47487 4.54
    endloop
  endfacet
  facet normal 0 0 1
    outer loop
      vertex 1.75 3.0141 4.54
      vertex 2.91014 1.94449 4.54
      vertex 2.47487 2.47487 4.54
    endloop
  endfacet
  facet normal 0 0 1
    outer loop
      vertex 1.75 3.0141 4.54
      vertex 3.23357 1.33939 4.54
      vertex 2.91014 1.94449 4.54
    endloop
  endfacet
  facet normal 0 0 1
    outer loop
      vertex 1.33939 -3.23357 4.54
      vertex 1.94449 -2.91014 4.54
      vertex 1.75 3.0141 4.54
    endloop
  endfacet
  facet normal 0 -0 1
    outer loop
      vertex 1.33939 -3.23357 4.54
      vertex 1.75 3.0141 4.54
      vertex 0.682816 -3.43274 4.54
    endloop
  endfacet
  facet normal 0 0 1
    outer loop
      vertex 1.75 3.0141 4.54
      vertex 0 -3.5 4.54
      vertex 0.682816 -3.43274 4.54
    endloop
  endfacet
  facet normal 0 0 1
    outer loop
      vertex 1.75 5 4.54
      vertex 1.69037 5.45293 4.54
      vertex 1.51553 5.875 4.54
    endloop
  endfacet
  facet normal 0 0 1
    outer loop
      vertex 1.75 5 4.54
      vertex 1.51553 5.875 4.54
      vertex 1.23743 6.23743 4.54
    endloop
  endfacet
  facet normal 0 0 1
    outer loop
      vertex 0.452927 6.69037 4.54
      vertex 0 6.75 4.54
      vertex -0.452927 6.69037 4.54
    endloop
  endfacet
  facet normal 0 0 1
    outer loop
      vertex 0.452927 6.69037 4.54
      vertex -0.452927 6.69037 4.54
      vertex -0.875 6.51553 4.54
    endloop
  endfacet
  facet normal 0 0 1
    outer loop
      vertex 0.452927 6.69037 4.54
      vertex -0.875 6.51553 4.54
      vertex 0.875 6.51553 4.54
    endloop
  endfacet
  facet normal -0 0 1
    outer loop
      vertex -0.875 6.51553 4.54
      vertex -1.23743 6.23743 4.54
      vertex 0.875 6.51553 4.54
    endloop
  endfacet
  facet normal 0 0 1
    outer loop
      vertex -1.23743 6.23743 4.54
      vertex 1.23743 6.23743 4.54
      vertex 0.875 6.51553 4.54
    endloop
  endfacet
  facet normal 0 0 1
    outer loop
      vertex -1.75 5 4.54
      vertex 1.23743 6.23743 4.54
      vertex -1.23743 6.23743 4.54
    endloop
  endfacet
  facet normal 0 0 1
    outer loop
      vertex -1.75 5 4.54
      vertex -1.23743 6.23743 4.54
      vertex -1.51553 5.875 4.54
    endloop
  endfacet
  facet normal 0 0 1
    outer loop
      vertex -1.75 5 4.54
      vertex -1.51553 5.875 4.54
      vertex -1.69037 5.45293 4.54
    endloop
  endfacet
  facet normal 0 0 1
    outer loop
      vertex 1.75 5 4.54
      vertex 1.23743 6.23743 4.54
      vertex -1.75 5 4.54
    endloop
  endfacet
  facet normal 0 0 1
    outer loop
      vertex 1.75 5 4.54
      vertex -1.75 5 4.54
      vertex 1.75 3.0141 4.54
    endloop
  endfacet
  facet normal 0 0 1
    outer loop
      vertex -1.75 5 4.54
      vertex -1.75 3.0141 4.54
      vertex 1.75 3.0141 4.54
    endloop
  endfacet
  facet normal -0 0 1
    outer loop
      vertex -1.75 3.0141 4.54
      vertex 0 -3.5 4.54
      vertex 1.75 3.0141 4.54
    endloop
  endfacet
  facet normal -0 0 1
    outer loop
      vertex -1.94449 2.91014 4.54
      vertex -2.47487 2.47487 4.54
      vertex -1.75 3.0141 4.54
    endloop
  endfacet
  facet normal -0 0 1
    outer loop
      vertex -2.47487 2.47487 4.54
      vertex -2.91014 1.94449 4.54
      vertex -1.75 3.0141 4.54
    endloop
  endfacet
  facet normal -0 0 1
    outer loop
      vertex -2.91014 1.94449 4.54
      vertex -3.23357 1.33939 4.54
      vertex -1.75 3.0141 4.54
    endloop
  endfacet
  facet normal -0 0 1
    outer loop
      vertex -3.23357 1.33939 4.54
      vertex -3.43274 0.682816 4.54
      vertex -1.75 3.0141 4.54
    endloop
  endfacet
  facet normal -0 0 1
    outer loop
      vertex -3.43274 0.682816 4.54
      vertex -3.5 0 4.54
      vertex -1.75 3.0141 4.54
    endloop
  endfacet
  facet normal -0 0 1
    outer loop
      vertex -3.5 0 4.54
      vertex -3.43274 -0.682816 4.54
      vertex -1.75 3.0141 4.54
    endloop
  endfacet
  facet normal -0 0 1
    outer loop
      vertex -3.43274 -0.682816 4.54
      vertex -3.23357 -1.33939 4.54
      vertex -1.75 3.0141 4.54
    endloop
  endfacet
  facet normal -0 0 1
    outer loop
      vertex -3.23357 -1.33939 4.54
      vertex -2.91014 -1.94449 4.54
      vertex -1.75 3.0141 4.54
    endloop
  endfacet
  facet normal -0 0 1
    outer loop
      vertex -2.91014 -1.94449 4.54
      vertex -2.47487 -2.47487 4.54
      vertex -1.75 3.0141 4.54
    endloop
  endfacet
  facet normal -0 0 1
    outer loop
      vertex -2.47487 -2.47487 4.54
      vertex -1.94449 -2.91014 4.54
      vertex -1.75 3.0141 4.54
    endloop
  endfacet
  facet normal -0 0 1
    outer loop
      vertex -1.94449 -2.91014 4.54
      vertex -1.33939 -3.23357 4.54
      vertex -1.75 3.0141 4.54
    endloop
  endfacet
  facet normal -0 -0 1
    outer loop
      vertex -1.33939 -3.23357 4.54
      vertex -0.682816 -3.43274 4.54
      vertex -1.75 3.0141 4.54
    endloop
  endfacet
  facet normal -0 -0 1
    outer loop
      vertex -0.682816 -3.43274 4.54
      vertex 0 -3.5 4.54
      vertex -1.75 3.0141 4.54
    endloop
  endfacet
  facet normal 0.290285 -0.95694 0
    outer loop
      vertex 1.33939 -3.23357 0
      vertex 0.682816 -3.43274 4.54
      vertex 0.682816 -3.43274 0
    endloop
  endfacet
  facet normal 0.290285 -0.95694 0
    outer loop
      vertex 1.33939 -3.23357 0
      vertex 1.33939 -3.23357 4.54
      vertex 0.682816 -3.43274 4.54
    endloop
  endfacet
  facet normal 0.471394 -0.881923 0
    outer loop
      vertex 1.94449 -2.91014 0
      vertex 1.33939 -3.23357 4.54
      vertex 1.33939 -3.23357 0
    endloop
  endfacet
  facet normal 0.471394 -0.881923 0
    outer loop
      vertex 1.94449 -2.91014 0
      vertex 1.94449 -2.91014 4.54
      vertex 1.33939 -3.23357 4.54
    endloop
  endfacet
  facet normal 0.634392 -0.773012 0
    outer loop
      vertex 2.47487 -2.47487 0
      vertex 1.94449 -2.91014 4.54
      vertex 1.94449 -2.91014 0
    endloop
  endfacet
  facet normal 0.634392 -0.773012 0
    outer loop
      vertex 2.47487 -2.47487 0
      vertex 2.47487 -2.47487 4.54
      vertex 1.94449 -2.91014 4.54
    endloop
  endfacet
  facet normal 0.773012 -0.634392 0
    outer loop
      vertex 2.91014 -1.94449 0
      vertex 2.47487 -2.47487 4.54
      vertex 2.47487 -2.47487 0
    endloop
  endfacet
  facet normal 0.773012 -0.634392 0
    outer loop
      vertex 2.91014 -1.94449 0
      vertex 2.91014 -1.94449 4.54
      vertex 2.47487 -2.47487 4.54
    endloop
  endfacet
  facet normal 0.881923 -0.471394 0
    outer loop
      vertex 3.23357 -1.33939 0
      vertex 2.91014 -1.94449 4.54
      vertex 2.91014 -1.94449 0
    endloop
  endfacet
  facet normal 0.881923 -0.471394 0
    outer loop
      vertex 3.23357 -1.33939 0
      vertex 3.23357 -1.33939 4.54
      vertex 2.91014 -1.94449 4.54
    endloop
  endfacet
  facet normal 0.95694 -0.290285 0
    outer loop
      vertex 3.43274 -0.682816 0
      vertex 3.23357 -1.33939 4.54
      vertex 3.23357 -1.33939 0
    endloop
  endfacet
  facet normal 0.95694 -0.290285 0
    outer loop
      vertex 3.43274 -0.682816 0
      vertex 3.43274 -0.682816 4.54
      vertex 3.23357 -1.33939 4.54
    endloop
  endfacet
  facet normal 0.995184 -0.0980294 0
    outer loop
      vertex 3.5 0 0
      vertex 3.43274 -0.682816 4.54
      vertex 3.43274 -0.682816 0
    endloop
  endfacet
  facet normal 0.995184 -0.0980294 0
    outer loop
      vertex 3.5 0 0
      vertex 3.5 0 4.54
      vertex 3.43274 -0.682816 4.54
    endloop
  endfacet
  facet normal 0.995184 0.0980294 0
    outer loop
      vertex 3.43274 0.682816 0
      vertex 3.5 0 4.54
      vertex 3.5 0 0
    endloop
  endfacet
  facet normal 0.995184 0.0980294 -0
    outer loop
      vertex 3.43274 0.682816 0
      vertex 3.43274 0.682816 4.54
      vertex 3.5 0 4.54
    endloop
  endfacet
  facet normal 0.95694 0.290285 0
    outer loop
      vertex 3.23357 1.33939 0
      vertex 3.43274 0.682816 4.54
      vertex 3.43274 0.682816 0
    endloop
  endfacet
  facet normal 0.95694 0.290285 -0
    outer loop
      vertex 3.23357 1.33939 0
      vertex 3.23357 1.33939 4.54
      vertex 3.43274 0.682816 4.54
    endloop
  endfacet
  facet normal 0.881923 0.471394 0
    outer loop
      vertex 2.91014 1.94449 0
      vertex 3.23357 1.33939 4.54
      vertex 3.23357 1.33939 0
    endloop
  endfacet
  facet normal 0.881923 0.471394 -0
    outer loop
      vertex 2.91014 1.94449 0
      vertex 2.91014 1.94449 4.54
      vertex 3.23357 1.33939 4.54
    endloop
  endfacet
  facet normal 0.773012 0.634392 0
    outer loop
      vertex 2.47487 2.47487 0
      vertex 2.91014 1.94449 4.54
      vertex 2.91014 1.94449 0
    endloop
  endfacet
  facet normal 0.773012 0.634392 -0
    outer loop
      vertex 2.47487 2.47487 0
      vertex 2.47487 2.47487 4.54
      vertex 2.91014 1.94449 4.54
    endloop
  endfacet
  facet normal 0.634392 0.773012 0
    outer loop
      vertex 1.94449 2.91014 0
      vertex 2.47487 2.47487 4.54
      vertex 2.47487 2.47487 0
    endloop
  endfacet
  facet normal 0.634392 0.773012 -0
    outer loop
      vertex 1.94449 2.91014 0
      vertex 1.94449 2.91014 4.54
      vertex 2.47487 2.47487 4.54
    endloop
  endfacet
  facet normal 0.471407 0.881916 0
    outer loop
      vertex 1.75 3.0141 0
      vertex 1.94449 2.91014 4.54
      vertex 1.94449 2.91014 0
    endloop
  endfacet
  facet normal 0.471407 0.881916 -0
    outer loop
      vertex 1.75 3.0141 0
      vertex 1.75 3.0141 4.54
      vertex 1.94449 2.91014 4.54
    endloop
  endfacet
  facet normal 1 0 0
    outer loop
      vertex 1.75 5 0
      vertex 1.75 3.0141 4.54
      vertex 1.75 3.0141 0
    endloop
  endfacet
  facet normal 1 0 -0
    outer loop
      vertex 1.75 5 0
      vertex 1.75 5 4.54
      vertex 1.75 3.0141 4.54
    endloop
  endfacet
  facet normal 0.991445 0.130528 0
    outer loop
      vertex 1.69037 5.45293 0
      vertex 1.75 5 4.54
      vertex 1.75 5 0
    endloop
  endfacet
  facet normal 0.991445 0.130528 -0
    outer loop
      vertex 1.69037 5.45293 0
      vertex 1.69037 5.45293 4.54
      vertex 1.75 5 4.54
    endloop
  endfacet
  facet normal 0.92387 0.382707 0
    outer loop
      vertex 1.51553 5.875 0
      vertex 1.69037 5.45293 4.54
      vertex 1.69037 5.45293 0
    endloop
  endfacet
  facet normal 0.92387 0.382707 -0
    outer loop
      vertex 1.51553 5.875 0
      vertex 1.51553 5.875 4.54
      vertex 1.69037 5.45293 4.54
    endloop
  endfacet
  facet normal 0.793356 0.608758 0
    outer loop
      vertex 1.23743 6.23743 0
      vertex 1.51553 5.875 4.54
      vertex 1.51553 5.875 0
    endloop
  endfacet
  facet normal 0.793356 0.608758 -0
    outer loop
      vertex 1.23743 6.23743 0
      vertex 1.23743 6.23743 4.54
      vertex 1.51553 5.875 4.54
    endloop
  endfacet
  facet normal 0.608758 0.793356 0
    outer loop
      vertex 0.875 6.51553 0
      vertex 1.23743 6.23743 4.54
      vertex 1.23743 6.23743 0
    endloop
  endfacet
  facet normal 0.608758 0.793356 -0
    outer loop
      vertex 0.875 6.51553 0
      vertex 0.875 6.51553 4.54
      vertex 1.23743 6.23743 4.54
    endloop
  endfacet
  facet normal 0.382705 0.923871 0
    outer loop
      vertex 0.452927 6.69037 0
      vertex 0.875 6.51553 4.54
      vertex 0.875 6.51553 0
    endloop
  endfacet
  facet normal 0.382705 0.923871 -0
    outer loop
      vertex 0.452927 6.69037 0
      vertex 0.452927 6.69037 4.54
      vertex 0.875 6.51553 4.54
    endloop
  endfacet
  facet normal 0.130528 0.991445 0
    outer loop
      vertex 0 6.75 0
      vertex 0.452927 6.69037 4.54
      vertex 0.452927 6.69037 0
    endloop
  endfacet
  facet normal 0.130528 0.991445 -0
    outer loop
      vertex 0 6.75 0
      vertex 0 6.75 4.54
      vertex 0.452927 6.69037 4.54
    endloop
  endfacet
  facet normal -0.130528 0.991445 0
    outer loop
      vertex -0.452927 6.69037 0
      vertex 0 6.75 4.54
      vertex 0 6.75 0
    endloop
  endfacet
  facet normal -0.130528 0.991445 0
    outer loop
      vertex -0.452927 6.69037 0
      vertex -0.452927 6.69037 4.54
      vertex 0 6.75 4.54
    endloop
  endfacet
  facet normal -0.382705 0.923871 0
    outer loop
      vertex -0.875 6.51553 0
      vertex -0.452927 6.69037 4.54
      vertex -0.452927 6.69037 0
    endloop
  endfacet
  facet normal -0.382705 0.923871 0
    outer loop
      vertex -0.875 6.51553 0
      vertex -0.875 6.51553 4.54
      vertex -0.452927 6.69037 4.54
    endloop
  endfacet
  facet normal -0.608758 0.793356 0
    outer loop
      vertex -1.23743 6.23743 0
      vertex -0.875 6.51553 4.54
      vertex -0.875 6.51553 0
    endloop
  endfacet
  facet normal -0.608758 0.793356 0
    outer loop
      vertex -1.23743 6.23743 0
      vertex -1.23743 6.23743 4.54
      vertex -0.875 6.51553 4.54
    endloop
  endfacet
  facet normal -0.793356 0.608758 0
    outer loop
      vertex -1.51553 5.875 0
      vertex -1.23743 6.23743 4.54
      vertex -1.23743 6.23743 0
    endloop
  endfacet
  facet normal -0.793356 0.608758 0
    outer loop
      vertex -1.51553 5.875 0
      vertex -1.51553 5.875 4.54
      vertex -1.23743 6.23743 4.54
    endloop
  endfacet
  facet normal -0.92387 0.382707 0
    outer loop
      vertex -1.69037 5.45293 0
      vertex -1.51553 5.875 4.54
      vertex -1.51553 5.875 0
    endloop
  endfacet
  facet normal -0.92387 0.382707 0
    outer loop
      vertex -1.69037 5.45293 0
      vertex -1.69037 5.45293 4.54
      vertex -1.51553 5.875 4.54
    endloop
  endfacet
  facet normal -0.991445 0.130528 0
    outer loop
      vertex -1.75 5 0
      vertex -1.69037 5.45293 4.54
      vertex -1.69037 5.45293 0
    endloop
  endfacet
  facet normal -0.991445 0.130528 0
    outer loop
      vertex -1.75 5 0
      vertex -1.75 5 4.54
      vertex -1.69037 5.45293 4.54
    endloop
  endfacet
  facet normal -1 0 0
    outer loop
      vertex -1.75 3.0141 0
      vertex -1.75 5 4.54
      vertex -1.75 5 0
    endloop
  endfacet
  facet normal -1 0 0
    outer loop
      vertex -1.75 3.0141 0
      vertex -1.75 3.0141 4.54
      vertex -1.75 5 4.54
    endloop
  endfacet
  facet normal -0.471407 0.881916 0
    outer loop
      vertex -1.94449 2.91014 0
      vertex -1.75 3.0141 4.54
      vertex -1.75 3.0141 0
    endloop
  endfacet
  facet normal -0.471407 0.881916 0
    outer loop
      vertex -1.94449 2.91014 0
      vertex -1.94449 2.91014 4.54
      vertex -1.75 3.0141 4.54
    endloop
  endfacet
  facet normal -0.634392 0.773012 0
    outer loop
      vertex -2.47487 2.47487 0
      vertex -1.94449 2.91014 4.54
      vertex -1.94449 2.91014 0
    endloop
  endfacet
  facet normal -0.634392 0.773012 0
    outer loop
      vertex -2.47487 2.47487 0
      vertex -2.47487 2.47487 4.54
      vertex -1.94449 2.91014 4.54
    endloop
  endfacet
  facet normal -0.773012 0.634392 0
    outer loop
      vertex -2.91014 1.94449 0
      vertex -2.47487 2.47487 4.54
      vertex -2.47487 2.47487 0
    endloop
  endfacet
  facet normal -0.773012 0.634392 0
    outer loop
      vertex -2.91014 1.94449 0
      vertex -2.91014 1.94449 4.54
      vertex -2.47487 2.47487 4.54
    endloop
  endfacet
  facet normal -0.881923 0.471394 0
    outer loop
      vertex -3.23357 1.33939 0
      vertex -2.91014 1.94449 4.54
      vertex -2.91014 1.94449 0
    endloop
  endfacet
  facet normal -0.881923 0.471394 0
    outer loop
      vertex -3.23357 1.33939 0
      vertex -3.23357 1.33939 4.54
      vertex -2.91014 1.94449 4.54
    endloop
  endfacet
  facet normal -0.95694 0.290285 0
    outer loop
      vertex -3.43274 0.682816 0
      vertex -3.23357 1.33939 4.54
      vertex -3.23357 1.33939 0
    endloop
  endfacet
  facet normal -0.95694 0.290285 0
    outer loop
      vertex -3.43274 0.682816 0
      vertex -3.43274 0.682816 4.54
      vertex -3.23357 1.33939 4.54
    endloop
  endfacet
  facet normal -0.995184 0.0980294 0
    outer loop
      vertex -3.5 0 0
      vertex -3.43274 0.682816 4.54
      vertex -3.43274 0.682816 0
    endloop
  endfacet
  facet normal -0.995184 0.0980294 0
    outer loop
      vertex -3.5 0 0
      vertex -3.5 0 4.54
      vertex -3.43274 0.682816 4.54
    endloop
  endfacet
  facet normal -0.995184 -0.0980294 0
    outer loop
      vertex -3.43274 -0.682816 0
      vertex -3.5 0 4.54
      vertex -3.5 0 0
    endloop
  endfacet
  facet normal -0.995184 -0.0980294 0
    outer loop
      vertex -3.43274 -0.682816 0
      vertex -3.43274 -0.682816 4.54
      vertex -3.5 0 4.54
    endloop
  endfacet
  facet normal -0.95694 -0.290285 0
    outer loop
      vertex -3.23357 -1.33939 0
      vertex -3.43274 -0.682816 4.54
      vertex -3.43274 -0.682816 0
    endloop
  endfacet
  facet normal -0.95694 -0.290285 0
    outer loop
      vertex -3.23357 -1.33939 0
      vertex -3.23357 -1.33939 4.54
      vertex -3.43274 -0.682816 4.54
    endloop
  endfacet
  facet normal -0.881923 -0.471394 0
    outer loop
      vertex -2.91014 -1.94449 0
      vertex -3.23357 -1.33939 4.54
      vertex -3.23357 -1.33939 0
    endloop
  endfacet
  facet normal -0.881923 -0.471394 0
    outer loop
      vertex -2.91014 -1.94449 0
      vertex -2.91014 -1.94449 4.54
      vertex -3.23357 -1.33939 4.54
    endloop
  endfacet
  facet normal -0.773012 -0.634392 0
    outer loop
      vertex -2.47487 -2.47487 0
      vertex -2.91014 -1.94449 4.54
      vertex -2.91014 -1.94449 0
    endloop
  endfacet
  facet normal -0.773012 -0.634392 0
    outer loop
      vertex -2.47487 -2.47487 0
      vertex -2.47487 -2.47487 4.54
      vertex -2.91014 -1.94449 4.54
    endloop
  endfacet
  facet normal -0.634392 -0.773012 0
    outer loop
      vertex -1.94449 -2.91014 0
      vertex -2.47487 -2.47487 4.54
      vertex -2.47487 -2.47487 0
    endloop
  endfacet
  facet normal -0.634392 -0.773012 0
    outer loop
      vertex -1.94449 -2.91014 0
      vertex -1.94449 -2.91014 4.54
      vertex -2.47487 -2.47487 4.54
    endloop
  endfacet
  facet normal -0.471394 -0.881923 0
    outer loop
      vertex -1.33939 -3.23357 0
      vertex -1.94449 -2.91014 4.54
      vertex -1.94449 -2.91014 0
    endloop
  endfacet
  facet normal -0.471394 -0.881923 0
    outer loop
      vertex -1.33939 -3.23357 0
      vertex -1.33939 -3.23357 4.54
      vertex -1.94449 -2.91014 4.54
    endloop
  endfacet
  facet normal -0.290285 -0.95694 0
    outer loop
      vertex -0.682816 -3.43274 0
      vertex -1.33939 -3.23357 4.54
      vertex -1.33939 -3.23357 0
    endloop
  endfacet
  facet normal -0.290285 -0.95694 0
    outer loop
      vertex -0.682816 -3.43274 0
      vertex -0.682816 -3.43274 4.54
      vertex -1.33939 -3.23357 4.54
    endloop
  endfacet
  facet normal -0.0980294 -0.995184 0
    outer loop
      vertex 0 -3.5 0
      vertex -0.682816 -3.43274 4.54
      vertex -0.682816 -3.43274 0
    endloop
  endfacet
  facet normal -0.0980294 -0.995184 0
    outer loop
      vertex 0 -3.5 0
      vertex 0 -3.5 4.54
      vertex -0.682816 -3.43274 4.54
    endloop
  endfacet
  facet normal 0.0980294 -0.995184 0
    outer loop
      vertex 0.682816 -3.43274 0
      vertex 0 -3.5 4.54
      vertex 0 -3.5 0
    endloop
  endfacet
  facet normal 0.0980294 -0.995184 0
    outer loop
      vertex 0.682816 -3.43274 0
      vertex 0.682816 -3.43274 4.54
      vertex 0 -3.5 4.54
    endloop
  endfacet
endsolid OpenSCAD_Model
